<svg width="48" height="48" viewBox="0 0 48 48" fill="none" xmlns="http://www.w3.org/2000/svg">
<path d="M40.618 35.416C44.392 31.32 44.012 26.06 44 26V10C44 9.46957 43.7893 8.96086 43.4142 8.58579C43.0391 8.21071 42.5304 8 42 8H30C27.794 8 26 9.794 26 12V26C26 26.5304 26.2107 27.0391 26.5858 27.4142C26.9609 27.7893 27.4696 28 28 28H34.156C34.1137 28.9888 33.8183 29.9501 33.298 30.792C32.282 32.394 30.368 33.488 27.606 34.04L26 34.36V40H28C33.566 40 37.812 38.458 40.618 35.416ZM18.604 35.416C22.38 31.32 21.998 26.06 21.986 26V10C21.986 9.46957 21.7753 8.96086 21.4002 8.58579C21.0251 8.21071 20.5164 8 19.986 8H7.98599C5.77999 8 3.98599 9.794 3.98599 12V26C3.98599 26.5304 4.19671 27.0391 4.57178 27.4142C4.94685 27.7893 5.45556 28 5.98599 28H12.142C12.0997 28.9888 11.8043 29.9501 11.284 30.792C10.268 32.394 8.35399 33.488 5.59199 34.04L3.98599 34.36V40H5.98599C11.552 40 15.798 38.458 18.604 35.416Z" fill="#DC7D28"/>
</svg>
